<?xml version="1.0" encoding="iso-8859-1"?>
<!-- Generator: Adobe Illustrator 23.1.1, SVG Export Plug-In . SVG Version: 6.00 Build 0)  -->
<svg version="1.1" id="_x31_-outline-expand" xmlns="http://www.w3.org/2000/svg" xmlns:xlink="http://www.w3.org/1999/xlink"
	 x="0px" y="0px" viewBox="0 0 64 64" style="enable-background:new 0 0 64 64;" xml:space="preserve">
<circle cx="30" cy="26" r="2"/>
<circle cx="44" cy="26" r="2"/>
<path d="M58.016,52.722l-9.63-2.03C47.003,50.4,46,49.163,46,47.75v-2.023c5.392-2.913,9.223-8.355,9.893-14.727H57
	c2.757,0,5-2.243,5-5s-2.243-5-5-5h-1c0-9.374-7.626-17-17-17H23c-0.834,0-1.564-0.508-1.862-1.295
	c-0.165-0.435-0.61-0.694-1.067-0.637c-1.834,0.244-3.53,1.232-4.652,2.711c-1.133,1.493-1.611,3.352-1.347,5.232
	c0.369,2.619,2.263,4.739,4.745,5.586C18.285,17.372,18,19.183,18,21h-1c-2.757,0-5,2.243-5,5c0,1.323,0.518,2.578,1.477,3.551
	c0.17,0.164,0.345,0.311,0.523,0.445v5.189C13.686,35.072,13.352,35,13,35c-0.771,0-1.468,0.301-2,0.78C10.468,35.301,9.771,35,9,35
	s-1.468,0.301-2,0.78C6.468,35.301,5.771,35,5,35c-1.654,0-3,1.346-3,3v23c0,0.553,0.447,1,1,1h16c0.553,0,1-0.447,1-1v-6.734
	l0.222-0.389l5.804-1.228c0.15-0.032,0.29-0.088,0.435-0.132L36,57.601V62h2v-4.399l9.539-5.085
	c0.145,0.045,0.284,0.101,0.435,0.132l9.632,2.03c1.369,0.286,2.685,0.87,3.805,1.688l1.18-1.615
	C61.242,53.767,59.66,53.064,58.016,52.722z M45.527,51.321L37,55.867l-8.527-4.546C29.414,50.401,30,49.131,30,47.75v-1.103
	C32.169,47.511,34.527,48,37,48s4.831-0.489,7-1.353v1.103C44,49.131,44.586,50.401,45.527,51.321z M37,46
	c-8.349,0-15.296-6.054-16.719-14h33.437C52.296,39.946,45.349,46,37,46z M16,38V28c0-0.552,0.448-1,1-1s1,0.448,1,1v1v12h-2V38z
	 M20,37.434c0.779,1.564,1.766,3.002,2.927,4.286C22.404,41.277,21.737,41,21,41h-1V37.434z M57,23c1.654,0,3,1.346,3,3
	s-1.346,3-3,3h-1v-6H57z M16.052,9.732c-0.19-1.349,0.15-2.679,0.96-3.744c0.673-0.888,1.598-1.512,2.649-1.801
	C20.391,5.297,21.646,6,23,6h16c8.237,0,14.945,6.674,15,14.899c-2.279-0.465-4-2.484-4-4.899v-1c0-0.553-0.447-1-1-1H21.211
	C18.612,14,16.395,12.165,16.052,9.732z M21.211,16H48c0,3.519,2.614,6.432,6,6.92V29c0,0.338-0.031,0.667-0.051,1H20.051
	C20.031,29.667,20,29.338,20,29v-1v-7c0-1.687,0.276-3.371,0.79-5.019C20.93,15.989,21.069,16,21.211,16z M17,23h1v2.184
	C17.686,25.072,17.352,25,17,25c-1.302,0-2.402,0.839-2.816,2.001C14.07,26.682,14,26.346,14,26C14,24.346,15.346,23,17,23z M13,37
	c0.552,0,1,0.448,1,1v4c0,0.552-0.448,1-1,1s-1-0.448-1-1v-4C12,37.448,12.448,37,13,37z M9,37c0.552,0,1,0.448,1,1v4
	c0,0.552-0.448,1-1,1s-1-0.448-1-1v-4C8,37.448,8.448,37,9,37z M4,38c0-0.552,0.448-1,1-1s1,0.448,1,1v4c0,0.552-0.448,1-1,1
	s-1-0.448-1-1V38z M18.132,53.504C18.046,53.655,18,53.826,18,54v6H4V44.816C4.314,44.928,4.648,45,5,45c0.771,0,1.468-0.301,2-0.78
	C7.532,44.699,8.229,45,9,45s1.468-0.301,2-0.78c0.532,0.48,1.229,0.78,2,0.78c0.624,0,1.204-0.192,1.685-0.52
	C15.549,45.978,17.15,47,19,47h1v-2h-1c-1.304,0-2.416-0.836-2.829-2H21c0.552,0,1,0.448,1,1v2.734L18.132,53.504z M25.613,50.691
	l-4.062,0.859l2.317-4.055C23.954,47.345,24,47.174,24,47v-3c0-0.608-0.184-1.173-0.497-1.646c1.32,1.334,2.833,2.474,4.497,3.373
	v2.023C28,49.163,26.997,50.4,25.613,50.691z"/>
<path d="M56,56H43c-0.553,0-1,0.447-1,1v4c0,0.553,0.447,1,1,1h13c0.553,0,1-0.447,1-1v-4C57,56.447,56.553,56,56,56z M55,60H44v-2
	h11V60z"/>
</svg>
