<svg xmlns="http://www.w3.org/2000/svg" version="1.1" xmlns:xlink="http://www.w3.org/1999/xlink" xmlns:svgjs="http://svgjs.dev/svgjs" width="100%" height="100%" viewBox="0 0 1000 600"><rect width="1000" height="600" x="0" y="0" fill="#33aaaa"/><g><rect width="333.3333333333333" height="333.3333333333333" rx="13.333333333333334" ry="13.333333333333334" y="224.13033871780834" fill="#005566" transform="matrix(0.6190935338078576,0,0,0.6190935338078575,0,58.060106081343775)" x="201.90809631347656"/><path d="M247.81191709860474 421.7370829083033Q247.81191709860474 435.41085282146037 257.7507220817791 442.88078268142584Q267.7211793101228 450.31906029622195 283.1991271979325 450.31906029622195Q298.64542284057296 450.31906029622195 307.31813801697353 444.0519157526916Q316.0225054385434 437.75311896399194 316.0225054385434 427.18126907743067Q316.0225054385434 416.6094191908694 308.26770537205385 409.9307954601376Q300.54455755073366 403.2521717294058 281.83808065565074 398.7892051605281L281.83808065565074 398.7892051605281Q232.7771006431658 387.0145699575317 232.7771006431658 355.6155427495414L232.7771006431658 355.6155427495414Q232.7771006431658 338.3650691322483 246.79904525318568 327.09686985196146Q260.82098986320557 315.7970183265053 283.5789541399647 315.7970183265053Q306.33691841672385 315.7970183265053 320.80199445911455 328.5845253749207Q335.26707050150526 341.37203242333607 334.697330088457 359.28720318918545L334.697330088457 359.28720318918545L334.4757643722716 359.9519003377417L315.6743307416806 359.9519003377417Q315.6743307416806 346.8478708376328 307.0965723007881 339.0614185259739Q298.5504661050649 331.2433139691457 283.45234515928735 331.2433139691457Q268.38587645867904 331.2433139691457 260.44116292117343 337.7636764740308Q252.46479713849845 344.2840389789158 252.46479713849845 354.571018658953Q252.46479713849845 364.85799833899017 260.9159465987136 371.15679512768986Q269.3987483040981 377.4239396712202 288.64331336705993 382.3300376724687L288.64331336705993 382.3300376724687Q335.7102019338761 394.2312818561424 335.7102019338761 426.73813764505985L335.7102019338761 426.73813764505985Q335.7102019338761 444.4317426947237 321.34008262699336 455.098549316793Q307.0016155652801 465.79700818403165 283.6422586303034 465.79700818403165L283.6422586303034 465.79700818403165Q268.82900789104986 465.79700818403165 256.3263710491585 460.60603997625907Q243.7920819620979 455.4467240136558 236.10058638594705 445.31800555946535Q228.44074305496554 435.18928710527496 228.75726550665897 422.2751710761822L228.75726550665897 422.2751710761822L228.9788312228444 421.7370829083033L247.81191709860474 421.7370829083033ZM364.4187883024721 463.45474204150014L364.4187883024721 317.696153036666L389.67727994760946 317.696153036666L436.0794713658694 436.07554997001665L436.7441685144256 436.07554997001665L483.14635993268547 317.696153036666L508.40485157782297 317.696153036666L508.40485157782297 463.45474204150014L488.71715508249025 463.45474204150014L488.71715508249025 405.8160035881227L490.71124652815905 346.49969614077L490.17315836028007 346.404739405262L442.9796608127866 463.45474204150014L429.84397906750837 463.45474204150014L382.7770905006922 346.72126185695544L382.20735008764404 346.72126185695544L384.10648479780474 405.8160035881227L384.10648479780474 463.45474204150014L364.4187883024721 463.45474204150014Z " fill="#eeee77" transform="matrix(0.6190935338078576,0,0,0.6190935338078575,0,58.060106081343775)"/><path d="M632.6956495988663 400.6071354704905Q632.6956495988663 410.73371748334984 640.0561744878428 416.2658317311156Q647.4401405388861 421.7745048168145 658.9028687895532 421.7745048168145Q670.3421558781536 421.7745048168145 676.7650342844579 417.13315472758734Q683.211353852829 412.46836347629335 683.211353852829 404.6390153459808Q683.211353852829 396.8096672156683 677.468269146462 391.8635820195727Q671.7486256021618 386.917496823477 657.8948988206807 383.6122929720576L657.8948988206807 383.6122929720576Q621.5610976171345 374.89218068320656 621.5610976171345 351.638547912937L621.5610976171345 351.638547912937Q621.5610976171345 338.86311458652875 631.9455324127287 330.51806089074654Q642.3299672083228 322.14956603289755 659.1841627343549 322.14956603289755Q676.038358260387 322.14956603289755 686.7509693249165 331.61979550788635Q697.4635803894458 341.09002498287515 697.0416394722433 354.35772271268627L697.0416394722433 354.35772271268627L696.8775513377757 354.8499871160891L682.9535010700941 354.8499871160891Q682.9535010700941 345.14534602043227 676.6009461499902 339.37882015199847Q670.2718323919532 333.5888531214979 659.0903980860877 333.5888531214979Q647.9324049422889 333.5888531214979 642.0486732635211 338.41773250725953Q636.1415004226866 343.2466118930211 636.1415004226866 350.8649895647324Q636.1415004226866 358.4833672364437 642.4002906945232 363.14815848773776Q648.6825221284267 367.7895085769649 662.9347486650436 371.42288869731954L662.9347486650436 371.42288869731954Q697.791756658381 380.23676563443786 697.791756658381 404.31083907704556L697.791756658381 404.31083907704556Q697.791756658381 417.41444867238897 687.1494690800521 425.31412028890196Q676.5306226637899 433.23723306748167 659.2310450584885 433.23723306748167L659.2310450584885 433.23723306748167Q648.2605812112242 433.23723306748167 639.0013221948366 429.3928824885258Q629.7186220163823 425.57197307163676 624.022419634149 418.0708012102595Q618.3496584139823 410.5696293488822 618.5840700346504 401.0056352256262L618.5840700346504 401.0056352256262L618.748158169118 400.6071354704905L632.6956495988663 400.6071354704905ZM717.4823327944964 351.2400481578013L732.0627356000485 351.2400481578013L732.0627356000485 431.5025870745382L717.4823327944964 431.5025870745382L717.4823327944964 351.2400481578013ZM717.4823327944964 315.79701111279365L732.0627356000485 315.79701111279365L732.0627356000485 330.705590187281L717.4823327944964 330.705590187281L717.4823327944964 315.79701111279365ZM769.1466539897324 372.07924123519007L769.1466539897324 431.5025870745382L754.6600158324476 431.5025870745382L754.6600158324476 351.2400481578013L767.6698607795238 351.2400481578013L768.7481542345968 361.7885710878631Q776.976002120045 349.7398137855258 793.1738451082065 349.7398137855258Q809.3716880963681 349.7398137855258 815.1382139648019 364.57806937381275L815.1382139648019 364.57806937381275Q823.4598264985173 349.7398137855258 839.7045518108125 349.7398137855258L839.7045518108125 349.7398137855258Q852.315897002753 349.7398137855258 859.2310398124603 358.2723967778425Q866.1461826221673 366.80497977015915 866.1461826221673 383.54196948585724L866.1461826221673 383.54196948585724L866.1461826221673 431.5025870745382L851.5657798166153 431.5025870745382L851.5657798166153 383.3778813513896Q851.5657798166153 371.75106496625483 847.6042234273255 366.68777395982517Q843.6661082001024 361.6244829533955 835.7898777456562 361.6244829533955Q827.91364729121 361.6244829533955 823.2488560399161 366.68777395982517Q818.6075059506888 371.75106496625483 817.7870652783507 379.90858936550256L817.7870652783507 379.90858936550256L817.7870652783507 431.5025870745382L803.0191331762642 431.5025870745382L803.0191331762642 383.3778813513896Q803.0191331762642 372.1730058834573 798.9403709766403 366.89874441842636Q794.8616087770165 361.6244829533955 786.7978490260358 361.6244829533955L786.7978490260358 361.6244829533955Q774.0927391858281 361.6244829533955 769.1466539897324 372.07924123519007L769.1466539897324 372.07924123519007ZM955.7383040414923 396.31740281226536L955.7383040414923 396.31740281226536L955.7383040414923 397.8879606707413Q955.7383040414923 415.42194989671066 947.3698091836432 425.94703166470566Q939.0013143257942 436.44867227063384 924.420911520242 436.44867227063384Q909.84050871469 436.44867227063384 901.9173959361103 426.55650187844253L901.9173959361103 426.55650187844253L901.9173959361103 465.79700717827245L887.3369931305582 465.79700717827245L887.3369931305582 354.6858989816215L898.5418685984905 354.6858989816215L900.8391024810373 365.0703337772157Q908.8325387458174 353.20910577141285 923.9755294409729 353.20910577141285Q939.0950789740614 353.20910577141285 947.4166915077768 364.8828044806812Q955.7383040414923 376.5330620278828 955.7383040414923 396.31740281226536ZM941.0641365876729 397.8879606707413L941.0641365876729 397.8879606707413L941.0641365876729 396.31740281226536Q941.0641365876729 382.13549976184896 935.5789046640408 373.6029167695323Q930.1171139024755 365.0703337772157 919.8967672413489 365.0703337772157L919.8967672413489 365.0703337772157Q907.7776864528113 365.0703337772157 901.9173959361103 375.7126213555447L901.9173959361103 375.7126213555447L901.9173959361103 414.5311857381721Q907.6839218045441 425.0797086682339 920.0608553758166 425.0797086682339L920.0608553758166 425.0797086682339Q930.1874373886758 425.0797086682339 935.6257869881744 417.64886029305706Q941.0641365876729 410.24145307994695 941.0641365876729 397.8879606707413ZM974.8428511259376 315.79701111279365L989.4466950935564 315.79701111279365L989.4466950935564 431.5025870745382L974.8428511259376 431.5025870745382L974.8428511259376 315.79701111279365ZM1061.129768693843 383.54196948585724L1061.129768693843 381.6432353584461Q1061.129768693843 372.57150563859295 1056.4415362804823 367.0159502287604Q1051.7533038671215 361.46039481892785 1042.9159857679363 361.46039481892785L1042.9159857679363 361.46039481892785Q1035.672666689294 361.46039481892785 1030.4452875483967 367.5550969562969Q1025.2179084074992 373.64979909366593 1023.9755268179587 383.12002856865473L1023.9755268179587 383.12002856865473L1024.1396149524262 383.54196948585724L1061.129768693843 383.54196948585724ZM1045.1428961642828 433.23723306748167L1045.1428961642828 433.23723306748167Q1028.4293476106513 433.23723306748167 1018.4902948943266 422.196445734017Q1008.5512421780016 411.15565840055234 1008.5512421780016 393.10596360911325L1008.5512421780016 393.10596360911325L1008.5512421780016 389.80075975769387Q1008.5512421780016 372.8996819075282 1018.6543830287942 361.41351249479425Q1028.7575238795866 349.9273430820603 1042.9159857679363 349.9273430820603L1042.9159857679363 349.9273430820603Q1058.9028582974966 349.9273430820603 1067.365117803613 359.51477836738314Q1075.8039361476624 369.12565481477276 1075.8039361476624 385.839203368404L1075.8039361476624 385.839203368404L1075.8039361476624 395.00469773652435L1023.7176740352238 395.00469773652435L1023.4832624145558 395.33287400545964Q1023.7176740352238 407.19410201126243 1029.4607587415908 414.4843034140385Q1035.180402285891 421.7745048168145 1045.1428961642828 421.7745048168145L1045.1428961642828 421.7745048168145Q1059.1607110802315 421.7745048168145 1067.9042645311492 413.87483320030157L1067.9042645311492 413.87483320030157L1073.6707903995832 423.3450626752904L1073.577025751316 423.3450626752904Q1063.520767224657 433.23723306748167 1045.1428961642828 433.23723306748167ZM1137.8526921384923 431.5025870745382L1137.8526921384923 323.5560357569058L1156.558739467802 323.5560357569058L1190.9234830577366 411.2259818867527L1191.4391886232065 411.2259818867527L1225.803932213141 323.5560357569058L1244.5099795424505 323.5560357569058L1244.5099795424505 431.5025870745382L1229.9061355748318 431.5025870745382L1229.9061355748318 388.8162309508881L1231.4063699471074 344.8874932376974L1230.984429029905 344.81716975149703L1196.0336563883002 431.5025870745382L1186.3290152926434 431.5025870745382L1151.4485661372387 345.051581372165L1151.050066382103 345.051581372165L1152.4565361061113 388.8162309508881L1152.4565361061113 431.5025870745382L1137.8526921384923 431.5025870745382ZM1317.7636110012131 383.54196948585724L1317.7636110012131 381.6432353584461Q1317.7636110012131 372.57150563859295 1313.0753785878524 367.0159502287604Q1308.3637050124246 361.46039481892785 1299.5498280753066 361.46039481892785L1299.5498280753066 361.46039481892785Q1292.306508996664 361.46039481892785 1287.0556886937 367.5550969562969Q1281.8283095528027 373.64979909366593 1280.585927963262 383.12002856865473L1280.585927963262 383.12002856865473L1280.7500160977295 383.54196948585724L1317.7636110012131 383.54196948585724ZM1301.7767384716528 433.23723306748167L1301.7767384716528 433.23723306748167Q1285.0397487559549 433.23723306748167 1275.1241372016966 422.196445734017Q1265.1850844853718 411.15565840055234 1265.1850844853718 393.10596360911325L1265.1850844853718 393.10596360911325L1265.1850844853718 389.80075975769387Q1265.1850844853718 372.8996819075282 1275.2882253361643 361.41351249479425Q1285.36792502489 349.9273430820603 1299.5498280753066 349.9273430820603L1299.5498280753066 349.9273430820603Q1315.5367006048666 349.9273430820603 1323.9755189489163 359.51477836738314Q1332.4377784550325 369.12565481477276 1332.4377784550325 385.839203368404L1332.4377784550325 385.839203368404L1332.4377784550325 395.00469773652435L1280.351516342594 395.00469773652435L1280.0936635598591 395.33287400545964Q1280.351516342594 407.19410201126243 1286.0711598868943 414.4843034140385Q1291.814244593261 421.7745048168145 1301.7767384716528 421.7745048168145L1301.7767384716528 421.7745048168145Q1315.7945533876016 421.7745048168145 1324.5146656764528 413.87483320030157L1324.5146656764528 413.87483320030157L1330.2811915448863 423.3450626752904L1330.210868058686 423.3450626752904Q1320.154609532027 433.23723306748167 1301.7767384716528 433.23723306748167ZM1345.4476234021088 393.01219896084604Q1345.4476234021088 373.3216228247307 1353.769235935824 361.6244829533955Q1362.0908484695394 349.9273430820603 1376.5306043026908 349.9273430820603Q1390.9469189737754 349.9273430820603 1398.6825024558204 360.12424858112L1398.6825024558204 360.12424858112L1398.6825024558204 315.9610992472613L1413.3566699096398 315.9610992472613L1413.3566699096398 431.6666752090058L1401.40167725557 431.6666752090058L1399.690472424693 421.7745048168145Q1391.697036159913 433.23723306748167 1376.9291040578266 433.23723306748167Q1362.1846131178065 433.23723306748167 1353.8630005840912 422.7355924615535Q1345.5413880503759 412.2105106935585 1345.5413880503759 394.5827568193219L1345.5413880503759 394.5827568193219L1345.4476234021088 393.01219896084604ZM1360.2155555041952 393.01219896084604L1360.2155555041952 393.01219896084604L1360.2155555041952 394.5827568193219Q1360.2155555041952 407.19410201126243 1365.2788465106248 414.27333295543724Q1370.3421375170544 421.3760050616789 1380.5624841781812 421.3760050616789L1380.5624841781812 421.3760050616789Q1392.9159765873867 421.3760050616789 1398.846590590288 410.07736494547936L1398.846590590288 410.07736494547936L1398.846590590288 372.66527028686016Q1392.7518884529193 361.7885710878631 1380.7265723126486 361.7885710878631L1380.7265723126486 361.7885710878631Q1370.4124610032547 361.7885710878631 1365.3257288347584 370.15706594571213Q1360.2155555041952 378.50211964149435 1360.2155555041952 393.01219896084604Z " fill="#eeee88" transform="matrix(0.6190935338078576,0,0,0.6190935338078575,0,58.060106081343775)"/></g></svg>